<svg xmlns="http://www.w3.org/2000/svg" viewBox="0 0 197.8 138.1"><defs><style>.a{fill:#181716}</style></defs><path class="a" d="M153.1 88.2h40.4v1.79h-40.4zM69.5 102.2h2.3L59.5 71.1H57l-12.3 31.1H47l3.7-9.7h15zm-18-11.6l5.2-13.2 1.5-4.1 1.5 4.1 5.2 13.2zM110.8 96.7l-1.7-.8c-1.2 2.5-3.1 4.8-7.2 4.8s-8.4-3.9-8.4-9.9 3.4-9.8 8-9.8a7.6 7.6 0 0 1 7.5 5.5l1.9-.6c-1.2-3.7-4.1-6.7-9.4-6.7s-10.1 5-10.1 11.6 4.4 11.7 10.5 11.7a9.2 9.2 0 0 0 8.9-5.8zM132.4 86.5v15.7h2.1V86.4c0-4.9-3.4-7.2-7.7-7.2a8.7 8.7 0 0 0-8.1 5.1V70.7h-2.1v31.5h2.1V89.8c0-5.6 3.8-8.8 7.8-8.8s5.9 1.8 5.9 5.5zM77 79.5v22.7h2.1V89c0-5 2.4-7.9 5.9-7.9a7 7 0 0 1 3.4.9l1-1.8a9.3 9.3 0 0 0-4.2-1 6.3 6.3 0 0 0-6.1 4.2v-3.9zM142.1 79.5h2.1v22.62h-2.1zM70.3 115.1h-2.7l-11 10.2v-19h-2.1v31.4h2.1v-10.1l4.1-3.7 10.2 13.8h2.5l-11.2-15.2 8.1-7.4zM21.3 136.3c-2.6 0-4.1-1.6-4.1-4.3v-15.1h8.6v-1.8h-8.6v-6.5h-2.1v6.5H10v1.8h5.1V132c0 3.8 2.2 6.1 6.1 6.1a7.7 7.7 0 0 0 5.7-2.6l-1.2-1.3a6 6 0 0 1-4.4 2.1zM38.9 114.7c-5.8 0-9.9 5-9.9 11.7s4.1 11.7 10.3 11.7 7.3-2.9 8.9-5.5l-1.7-.8c-1.3 2.1-3.2 4.5-7.2 4.5s-8.1-3.8-8.3-9.6h17.3v-1.4c0-5.9-3.5-10.6-9.4-10.6zM31.1 125c.5-5.2 3.8-8.5 7.8-8.5s7.2 3.5 7.4 8.5zM85.7 136.3c-2.7 0-4.2-1.6-4.2-4.3v-15.1h8.6v-1.8h-8.6v-6.5h-2v6.5h-5.2v1.8h5.2V132c0 3.8 2.2 6.1 6.1 6.1a8.1 8.1 0 0 0 5.7-2.6l-1.2-1.3a6 6 0 0 1-4.4 2.1zM141.3 114.7c-4.7 0-7.5 3.5-8.6 6.9v-6.5h-2.1v22.6h2.1v-9.2c0-5.9 2.9-12 8.4-12 3.3 0 5.3 1.8 5.3 5.2v16h2.1v-16.2c0-4.3-3.1-6.8-7.2-6.8zM164.3 114.7c-5.8 0-9.9 5-9.9 11.7s4.1 11.7 10.3 11.7 7.3-2.9 8.9-5.5l-1.7-.8c-1.3 2.1-3.2 4.5-7.2 4.5s-8.1-3.8-8.3-9.6h17.3v-1.4c0-5.9-3.5-10.6-9.4-10.6zm-7.8 10.3c.5-5.2 3.8-8.5 7.8-8.5s7.2 3.5 7.4 8.5zM190.6 114.7c-4.7 0-7.4 3.5-8.6 6.9v-6.5h-2.1v22.6h2.1v-9.2c0-5.9 2.9-12 8.4-12 3.3 0 5.3 1.8 5.3 5.2v16h2.1v-16.2c0-4.3-3.1-6.8-7.2-6.8zM116 114.7c-4.7 0-7.5 3.5-8.6 6.9v-6.5h-2.1v22.6h2.1v-9.2c0-5.9 2.8-12 8.4-12 3.2 0 5.3 1.8 5.3 5.2v16h2.1v-16.2c0-4.3-3.1-6.8-7.2-6.8zM95.7 115.1h2.1v22.62h-2.1zM34 15.9h19.9v15.2H56V0h-2.1v13.9H34V0h-2.2v31.1H34V15.9zM123 29.6c-3.8 0-7.2-1.6-8.3-5.7l-2 .5c1.3 4.9 5.4 7 10.3 7s8-2.8 8-6.5-2.6-5.5-7.8-6.5l-1.4-.3c-4.3-.8-6.2-1.8-6.2-4.4s2.3-3.8 5.2-3.8 6.5 1.6 7.4 4.8l1.9-.5c-1-4-4.5-6.1-9.3-6.1s-7.2 2.3-7.2 5.8 2.6 5.1 7.8 6.1l1.5.3c4.3.8 6.1 1.9 6.1 4.7s-2.3 4.6-6 4.6zM75.5 17.1l-6.8 1.6c-3.8.9-5.9 2.9-5.9 6.3s2.5 6.4 7.5 6.4A8.2 8.2 0 0 0 78 27a4.1 4.1 0 0 0 4.3 4.2 5.2 5.2 0 0 0 3.5-1.4l-1.1-1.3a3 3 0 0 1-2.2.9c-1.5 0-2.4-.9-2.4-2.7V14.1c0-4-3.5-6-7.6-6s-7.2 1.8-8.4 6.3l1.9.3c.9-3.4 3.1-4.8 6.5-4.8s5.5 1.6 5.5 4.3-.7 2.4-2.5 2.9zm2.5 4.8a7.4 7.4 0 0 1-7.5 7.7c-3.8 0-5.7-2-5.7-4.6s1.7-4.1 4.8-4.8l6.5-1.5a3.6 3.6 0 0 0 1.9-1.1zM96.2 31.4c4.6 0 7.4-3.4 8.6-6.8v6.5h2V8.4h-2v9.2c0 5.9-3 12-8.5 12-3.2 0-5.3-1.8-5.3-5.2v-16h-2v16.2c0 4.3 3 6.8 7.2 6.8zM153 25.1c-1.3 2.2-3.2 4.5-7.2 4.5s-8.1-3.7-8.3-9.5h17.4v-1.4c0-6-3.6-10.6-9.5-10.6s-9.9 5-9.9 11.7 4.1 11.6 10.3 11.6 7.4-2.9 8.9-5.5zm-7.6-15.2c4.3 0 7.3 3.4 7.4 8.4h-15.2c.5-5.1 3.8-8.4 7.8-8.4zM163.3 18c0-5.1 2.5-8 6-8a6.2 6.2 0 0 1 3.4 1l1-1.8a8.4 8.4 0 0 0-4.3-1.1 6.5 6.5 0 0 0-6.1 4.2V8.4h-2v22.7h2zM63.2 38.9a2.1 2.1 0 0 0 2.1-2.1 2.1 2.1 0 1 0-4.2 0 2.1 2.1 0 0 0 2.1 2.1zM145.2 72.3a2 2 0 0 0-2.1-2.1 2.1 2.1 0 1 0 0 4.2 2 2 0 0 0 2.1-2.1zM96.7 105.7a2.1 2.1 0 0 0-2.1 2.2 2.1 2.1 0 1 0 4.2 0 2.1 2.1 0 0 0-2.1-2.2zM96.2 44v22.6h2.1V53.5c0-5 2.4-8 5.9-8a5.7 5.7 0 0 1 3.4 1l1-1.8a7.6 7.6 0 0 0-4.2-1.1 6.5 6.5 0 0 0-6.1 4.2V44zM89.7 61.5l-1.7-.8c-1.3 2.1-3.2 4.5-7.2 4.5s-8.1-3.8-8.3-9.5h17.3v-1.5c0-5.9-3.5-10.6-9.4-10.6s-9.9 5.1-9.9 11.7S74.6 67 80.8 67s7.3-2.9 8.9-5.5zm-9.3-16.1c4.3 0 7.2 3.5 7.4 8.5H72.6c.5-5.2 3.8-8.5 7.8-8.5zM62.2 44h2.1v22.62h-2.1zM55.9 54.2c0-5.9-3.6-10.6-9.4-10.6s-10 5.1-10 11.7S40.6 67 46.8 67s7.4-2.9 8.9-5.5l-1.7-.8c-1.2 2.1-3.1 4.5-7.2 4.5s-8.1-3.8-8.2-9.5h17.3zm-17.2-.3c.5-5.2 3.7-8.5 7.8-8.5s7.2 3.5 7.3 8.5zM29.4 66.6V35.2h-3L16.5 60l-1.8 4.9L13 60 3.1 35.2H0v31.4h2.2l-.1-28.2.9 2.4 10.2 25.8h2.9l10.3-25.8.9-2.4-.1 28.2h2.2z"/></svg>