<svg xmlns="http://www.w3.org/2000/svg" viewBox="0 0 403.2 144.5"><defs><style>.a{fill:#181716}</style></defs><path class="a" d="M358.5 92h40.4v1.79h-40.4zM274.9 106h2.4L265 74.9h-2.5L250.2 106h2.2l3.8-9.6h14.9zM257 94.4l5.2-13.2 1.5-4 1.5 4 5.2 13.2zM316.3 100.5l-1.7-.8c-1.2 2.5-3.2 4.8-7.2 4.8s-8.5-3.9-8.5-9.8 3.4-9.9 8-9.9a7.7 7.7 0 0 1 7.6 5.5l1.9-.6c-1.2-3.7-4.2-6.7-9.5-6.7s-10 5-10 11.7 4.4 11.6 10.5 11.6a9.2 9.2 0 0 0 8.9-5.8zM337.9 90.3V106h2V90.2c0-4.9-3.3-7.2-7.6-7.2a8.8 8.8 0 0 0-8.2 5.1V74.5h-2V106h2V93.6c0-5.6 3.9-8.8 7.8-8.8s6 1.8 6 5.5zM282.5 83.3V106h2V92.9c0-5.1 2.5-8 6-8a6.2 6.2 0 0 1 3.4 1l1-1.8a8.4 8.4 0 0 0-4.3-1.1 6.5 6.5 0 0 0-6.1 4.2v-3.9zM347.6 83.3h2.1v22.62h-2.1zM275.8 118.9h-2.7L262 129.1v-19h-2v31.4h2v-10.1l4.1-3.7 10.2 13.8h2.5l-11.1-15.2 8.1-7.4zM226.7 140.1c-2.6 0-4.1-1.5-4.1-4.3v-15.1h8.6v-1.8h-8.6v-6.5h-2.1v6.5h-5.1v1.8h5.1v15.2c0 3.7 2.3 6 6.2 6a8.4 8.4 0 0 0 5.7-2.5l-1.3-1.4a5.6 5.6 0 0 1-4.4 2.1zM244.4 118.5c-5.9 0-10 5.1-10 11.7s4.1 11.7 10.3 11.7 7.4-2.9 8.9-5.5l-1.7-.8c-1.2 2.1-3.1 4.5-7.2 4.5s-8.1-3.8-8.2-9.5h17.3v-1.5c0-5.9-3.6-10.6-9.4-10.6zm-7.8 10.3c.5-5.1 3.7-8.5 7.8-8.5s7.2 3.5 7.3 8.5zM291.1 140.1c-2.6 0-4.1-1.5-4.1-4.3v-15.1h8.6v-1.8H287v-6.5h-2.1v6.5h-5.1v1.8h5.1v15.2c0 3.7 2.3 6 6.1 6a8.5 8.5 0 0 0 5.8-2.5l-1.3-1.4a5.8 5.8 0 0 1-4.4 2.1zM346.8 118.5c-4.7 0-7.5 3.5-8.7 6.9v-6.5h-2v22.6h2v-9.1c0-6 2.9-12.1 8.5-12.1 3.2 0 5.3 1.8 5.3 5.2v16h2v-16.1c0-4.4-3-6.9-7.1-6.9zM369.8 118.5c-5.9 0-10 5.1-10 11.7s4.1 11.7 10.3 11.7 7.4-2.9 8.9-5.5l-1.7-.8c-1.2 2.1-3.1 4.5-7.2 4.5s-8.1-3.8-8.2-9.5h17.3v-1.5c0-5.9-3.6-10.6-9.4-10.6zm-7.8 10.3c.5-5.1 3.7-8.5 7.8-8.5s7.2 3.5 7.3 8.5zM396.1 118.5c-4.7 0-7.5 3.5-8.7 6.9v-6.5h-2v22.6h2v-9.1c0-6 2.9-12.1 8.5-12.1 3.2 0 5.3 1.8 5.3 5.2v16h2v-16.1c0-4.4-3-6.9-7.1-6.9zM321.5 118.5c-4.7 0-7.5 3.5-8.7 6.9v-6.5h-2v22.6h2v-9.1c0-6 2.9-12.1 8.5-12.1 3.2 0 5.3 1.8 5.3 5.2v16h2v-16.1c0-4.4-3-6.9-7.1-6.9zM301.1 118.9h2.1v22.62h-2.1zM239.4 19.7h20v15.2h2.1V3.8h-2.1v13.9h-20V3.8h-2.1v31.1h2.1V19.7zM328.4 33.4c-3.8 0-7.2-1.6-8.2-5.7l-2 .5c1.2 4.9 5.4 7 10.2 7s8.1-2.7 8.1-6.5-2.6-5.5-7.8-6.5l-1.5-.3c-4.3-.8-6.1-1.7-6.1-4.4s2.3-3.8 5.2-3.8 6.4 1.6 7.3 4.8l2-.5c-1.1-4-4.5-6.1-9.3-6.1s-7.2 2.3-7.2 5.8 2.6 5.1 7.8 6.1l1.4.3c4.3.8 6.2 1.9 6.2 4.8s-2.3 4.5-6.1 4.5zM281 20.9l-6.8 1.6c-3.8.9-6 3-6 6.3s2.6 6.4 7.6 6.4a8.3 8.3 0 0 0 7.7-4.4 4 4 0 0 0 4.3 4.2 4.9 4.9 0 0 0 3.4-1.4l-1.1-1.2a2.9 2.9 0 0 1-2.1.9c-1.5 0-2.4-1-2.4-2.8V17.9c0-4-3.5-6-7.7-6s-7.1 1.8-8.3 6.3l1.9.3c.9-3.4 3-4.8 6.4-4.8s5.6 1.6 5.6 4.3-.7 2.4-2.5 2.9zm2.5 4.8a7.4 7.4 0 0 1-7.5 7.7c-3.8 0-5.7-2-5.7-4.6s1.7-4.1 4.8-4.8l6.4-1.5a4 4 0 0 0 2-1.1zM301.6 35.2c4.6 0 7.5-3.4 8.6-6.8v6.5h2.1V12.3h-2.1v9.1c0 5.9-2.9 12-8.4 12-3.2 0-5.3-1.8-5.3-5.2V12.3h-2.1v16.1c0 4.3 3.1 6.8 7.2 6.8zM358.4 29c-1.2 2.1-3.1 4.4-7.1 4.4s-8.2-3.7-8.3-9.5h17.3v-1.4c0-5.9-3.6-10.6-9.4-10.6s-10 5-10 11.7 4.2 11.6 10.4 11.6 7.3-2.8 8.9-5.4zm-7.5-15.3c4.3 0 7.2 3.4 7.4 8.4h-15.2c.5-5.1 3.8-8.4 7.8-8.4zM368.8 21.8c0-5.1 2.4-8 5.9-8a5.9 5.9 0 0 1 3.4 1l1-1.8a7.6 7.6 0 0 0-4.2-1.1 6.4 6.4 0 0 0-6.1 4.2v-3.8h-2.1v22.6h2.1zM268.7 42.7a2.1 2.1 0 0 0 2.1-2.1 2 2 0 0 0-2.1-2.1 1.9 1.9 0 0 0-2.1 2.1 2 2 0 0 0 2.1 2.1zM350.7 76.1a2.1 2.1 0 1 0-2.1 2.1 2.1 2.1 0 0 0 2.1-2.1zM302.2 109.6a1.9 1.9 0 0 0-2.1 2.1 2 2 0 0 0 2.1 2.1 2.1 2.1 0 0 0 2.1-2.1 2 2 0 0 0-2.1-2.1zM301.7 47.8v22.6h2.1V57.3c0-5 2.4-8 5.9-8a6.8 6.8 0 0 1 3.4 1l1-1.8a9 9 0 0 0-4.2-1.1 6.3 6.3 0 0 0-6.1 4.3v-3.9zM295.1 65.3l-1.7-.8c-1.2 2.2-3.1 4.5-7.2 4.5s-8.1-3.8-8.2-9.5h17.3V58c0-5.9-3.6-10.6-9.4-10.6s-10 5.1-10 11.7 4.1 11.7 10.3 11.7 7.4-2.9 8.9-5.5zm-9.2-16.1c4.2 0 7.2 3.5 7.3 8.5h-15.1c.5-5.1 3.7-8.5 7.8-8.5zM267.6 47.8h2.1v22.62h-2.1zM261.4 58c0-5.9-3.6-10.6-9.5-10.6s-9.9 5.1-9.9 11.7 4.1 11.7 10.3 11.7 7.4-2.9 8.9-5.5l-1.7-.8c-1.3 2.2-3.2 4.5-7.2 4.5s-8.1-3.8-8.3-9.5h17.4zm-17.3-.3c.5-5.1 3.8-8.5 7.8-8.5s7.3 3.5 7.4 8.5zM234.8 70.4V39h-2.9L222 63.9l-1.8 4.8-1.8-4.8-9.9-24.9h-3v31.4h2.1V42.2l.8 2.4 10.3 25.8h2.9l10.3-25.8.9-2.4-.1 28.2h2.1zM192.1 0l-18.9 71.1h-36.6L117.6 0h-2.2l-19 71.1h-36L79.1.6 77 0 58.9 68.1 40.7 0h-2.2L0 143.9l2.2.6L39.6 4.6l18.1 67.9-18.9 71.4 2.1.6 18-67.6L77 144.5h2.1l19-71.1h36.8l19 71.1h2.2L194.3.6zM78 139.9L60.3 73.4h35.5zm20.8-68.8l17.7-66.5 17.8 66.5zm56.2 68.7l-17.8-66.4h35.4z"/></svg>