<?xml version="1.0" standalone="no"?>
<!DOCTYPE svg PUBLIC "-//W3C//DTD SVG 20010904//EN"
 "http://www.w3.org/TR/2001/REC-SVG-20010904/DTD/svg10.dtd">
<svg version="1.0" xmlns="http://www.w3.org/2000/svg"
 width="512.000000pt" height="512.000000pt" viewBox="0 0 512.000000 512.000000"
 preserveAspectRatio="xMidYMid meet">
<metadata>
Created by potrace 1.11, written by Peter Selinger 2001-2013
</metadata>
<g transform="translate(0.000000,512.000000) scale(0.100000,-0.100000)"
fill="#000000" stroke="none">
<path d="M4505 4047 c-229 -868 -235 -890 -241 -885 -2 2 -96 350 -209 774
-113 423 -212 793 -221 822 l-15 53 -121 -3 -121 -3 -280 -1047 -280 -1048
-457 0 -457 0 -158 593 c-87 325 -213 797 -280 1047 l-122 455 -123 0 -122 0
-594 -2220 c-326 -1221 -590 -2223 -586 -2226 7 -7 275 -80 277 -76 1 1 129
480 285 1065 l283 1062 457 0 457 0 37 -137 c20 -76 146 -547 280 -1048 l243
-910 123 0 123 0 243 910 c134 501 260 972 280 1048 l37 137 414 0 c390 0 414
-1 409 -17 -18 -61 -536 -2022 -536 -2029 0 -11 279 -85 283 -76 2 4 105 388
228 854 139 526 227 841 231 830 4 -9 107 -393 229 -852 122 -459 223 -836
224 -837 0 -1 64 15 140 35 128 35 140 40 138 60 -2 12 -133 510 -293 1107
l-290 1085 291 1096 c160 603 289 1097 287 1098 -2 1 -59 17 -128 35 -69 18
-132 34 -140 36 -12 4 -56 -150 -225 -788z m-2894 -642 l186 -695 -374 0
c-205 0 -373 3 -373 8 -1 14 365 1382 370 1382 3 0 89 -313 191 -695z m2278 5
c101 -380 182 -692 179 -695 -3 -3 -171 -4 -374 -3 l-370 3 185 693 c102 380
188 692 191 692 3 0 88 -311 189 -690z m-958 -1007 c1 -16 -366 -1383 -371
-1383 -3 0 -20 55 -38 123 -17 67 -101 380 -185 695 l-154 572 374 0 c205 0
373 -3 374 -7z"/>
</g>
</svg>
